nColumns=19
nRows=46
DataType=double
version=3
OpenSimVersion=4.1
endheader
time	ground_force_calcn_r_vx	ground_force_calcn_r_vy	ground_force_calcn_r_vz	ground_force_calcn_r_px	ground_force_calcn_r_py	ground_force_calcn_r_pz	ground_force_calcn_r_mx	ground_force_calcn_r_my	ground_force_calcn_r_mz	ground_force_calcn_l_vx	ground_force_calcn_l_vy	ground_force_calcn_l_vz	ground_force_calcn_l_px	ground_force_calcn_l_py	ground_force_calcn_l_pz	ground_force_calcn_l_mx	ground_force_calcn_l_my	ground_force_calcn_l_mz
1.43	-105.106	167.456	-2.54836	-0.119623	0	-0.403975	-0.221029	0.352147	-0.00535897	-107.116	163.877	13.8344	-0.0942907	0	-0.771223	0.311478	-0.476532	-0.0402287
1.44	-357.046	616.375	-43.384	-0.127493	0	-0.399717	-0.859219	1.48329	-0.104402	-301.976	510.513	57.8395	-0.105202	0	-0.777503	0.681212	-1.15164	-0.130477
1.45	-278.005	659.273	-98.052	-0.136407	0	-0.397224	-1.20559	2.85899	-0.42521	-204.752	515.715	107.452	-0.118306	0	-0.776676	1.30366	-3.28357	-0.68415
1.46	-151.79	752.81	-107.143	-0.177604	0	-0.400321	0.0219435	-0.10883	0.0154892	-108.99	655	87.5667	-0.166666	0	-0.767853	-0.204608	1.22964	0.164391
1.47	-68.1464	1252.81	-104.231	-0.223044	0	-0.408029	0.363609	-6.68464	0.556149	-61.7589	1065.74	48.78	-0.20351	0	-0.759934	-0.412869	7.12469	0.326103
1.48	-63.539	1391.63	-105.147	-0.23147	0	-0.410441	0.490013	-10.7322	0.810893	-92.0236	1049.84	42.8168	-0.204472	0	-0.758229	-0.843127	9.61867	0.39229
1.49	-223.632	1016.03	-90.8953	-0.209083	0	-0.409145	1.95515	-8.88278	0.794668	-230.269	734.917	54.0599	-0.175781	0	-0.760076	-2.12143	6.77069	0.498047
1.5	-277.134	704.046	-74.842	-0.178382	0	-0.407267	2.34508	-5.95756	0.633304	-270.805	546.253	53.7861	-0.146007	0	-0.760385	-1.93945	3.91215	0.385205
1.51	-213.235	584.53	-64.0467	-0.167446	0	-0.406054	2.14114	-5.86939	0.643107	-224.781	507.594	42.0456	-0.143144	0	-0.758736	-2.09785	4.73728	0.392405
1.52	-165.967	572.449	-53.7168	-0.169819	0	-0.405965	2.09792	-7.23606	0.679009	-173.842	539.405	28.2499	-0.153638	0	-0.75671	-2.42423	7.52198	0.393943
1.53	-161.395	594.264	-50.7063	-0.172459	0	-0.405915	2.22761	-8.20216	0.699859	-148.224	573.772	21.1319	-0.16092	0	-0.755103	-2.50068	9.6801	0.356516
1.54	-152.183	630.642	-56.7162	-0.177078	0	-0.405979	2.0541	-8.5121	0.765527	-137.188	597.112	29.3863	-0.164583	0	-0.754877	-2.35041	10.2302	0.503469
1.55	-117.566	660.228	-62.0303	-0.183671	0	-0.406468	1.56354	-8.78058	0.82496	-118.112	614.725	43.1503	-0.168376	0	-0.754943	-1.96356	10.2195	0.717353
1.56	-84.525	669.147	-63.7067	-0.188472	0	-0.406997	1.14681	-9.07878	0.864353	-96.5012	613.87	47.4646	-0.170898	0	-0.754517	-1.63799	10.4197	0.805654
1.57	-71.4147	646.674	-62.566	-0.188884	0	-0.407127	1.00886	-9.1354	0.883855	-86.1526	586.122	45.607	-0.170307	0	-0.754011	-1.55526	10.5809	0.823313
1.58	-72.3718	602.775	-59.1589	-0.185903	0	-0.407064	1.09815	-9.14635	0.897663	-86.7367	553.17	43.7553	-0.168054	0	-0.753912	-1.65727	10.5693	0.836027
1.59	-80.4907	560.962	-52.7159	-0.181832	0	-0.407392	1.35894	-9.47086	0.890015	-89.9407	529.649	41.4224	-0.166278	0	-0.753691	-1.7832	10.5011	0.82126
1.6	-86.6309	530.077	-45.0056	-0.178771	0	-0.408259	1.61567	-9.88593	0.839354	-89.2118	513.432	40.5738	-0.165867	0	-0.753173	-1.78776	10.2889	0.813076
1.61	-83.8906	506.545	-40.6909	-0.17745	0	-0.409425	1.65424	-9.98859	0.802387	-81.2668	502.228	42.4157	-0.166924	0	-0.752366	-1.59263	9.84245	0.831245
1.62	-73.6334	488.378	-40.1243	-0.177677	0	-0.410498	1.47959	-9.81345	0.806256	-67.2126	494.314	43.5751	-0.169225	0	-0.751233	-1.27012	9.3411	0.823443
1.63	-62.1695	475.234	-41.531	-0.178726	0	-0.411487	1.24009	-9.47943	0.828413	-52.9284	487.873	40.9795	-0.171625	0	-0.749915	-0.974751	8.98487	0.754696
1.64	-54.6361	467.213	-43.6872	-0.179993	0	-0.41212	1.06374	-9.09644	0.850571	-43.4394	480.315	37.0833	-0.173256	0	-0.748732	-0.781746	8.64387	0.66736
1.65	-49.5497	460.834	-44.736	-0.181439	0	-0.412814	0.944814	-8.78718	0.853026	-37.3459	468.885	34.493	-0.174029	0	-0.747814	-0.65723	8.25166	0.607025
1.66	-44.2105	450.675	-43.7594	-0.182932	0	-0.413534	0.840379	-8.56669	0.831804	-32.7154	454.73	33.027	-0.174471	0	-0.747175	-0.570715	7.93269	0.57615
1.67	-38.0909	435.356	-41.2727	-0.184206	0	-0.414051	0.736949	-8.4229	0.798508	-28.5411	442.424	31.8569	-0.175105	0	-0.746853	-0.503424	7.80373	0.561911
1.68	-32.139	417.672	-37.6134	-0.185289	0	-0.414538	0.645981	-8.39504	0.756014	-23.1294	434.139	30.7713	-0.176377	0	-0.746676	-0.411799	7.72946	0.547856
1.69	-27.0979	402.243	-33.6934	-0.186347	0	-0.415206	0.573666	-8.51553	0.713294	-15.1824	429.79	30.1118	-0.178144	0	-0.746389	-0.266542	7.54542	0.528644
1.7	-22.3388	391.522	-30.5182	-0.187422	0	-0.415539	0.49709	-8.71229	0.679101	-6.2005	430.335	30.7104	-0.180514	0	-0.746037	-0.104583	7.25837	0.517986
1.71	-16.861	382.942	-28.7823	-0.188406	0	-0.415585	0.388759	-8.82937	0.663625	1.96182	434.92	32.6121	-0.18294	0	-0.746108	0.0311567	6.90719	0.517929
1.72	-10.4759	374.011	-28.105	-0.189124	0	-0.415617	0.246061	-8.7849	0.66014	9.43635	439.809	35.2987	-0.185174	0	-0.746384	0.140467	6.54687	0.525446
1.73	-3.99983	364.956	-27.7835	-0.189525	0	-0.415616	0.0941978	-8.59488	0.654314	16.0012	443.376	38.2852	-0.186858	0	-0.746754	0.223979	6.20621	0.535901
1.74	1.41605	354.58	-27.5996	-0.189594	0	-0.415538	-0.0331296	-8.29568	0.645715	21.0594	447.511	40.9108	-0.187785	0	-0.747261	0.274893	5.84146	0.534017
1.75	5.88424	341.492	-27.2409	-0.189139	0	-0.415686	-0.137123	-7.95793	0.634806	24.5546	453.013	43.0816	-0.187775	0	-0.747894	0.297316	5.48523	0.521646
1.76	8.52851	325.278	-25.9938	-0.187746	0	-0.415825	-0.199384	-7.60453	0.607699	26.0406	457.223	45.606	-0.187002	0	-0.748724	0.291211	5.1131	0.510009
1.77	9.10698	307.892	-24.098	-0.185609	0	-0.415954	-0.214897	-7.26531	0.568638	25.0439	458.627	48.2007	-0.185812	0	-0.749707	0.260202	4.76506	0.500798
1.78	9.02045	291.458	-22.0431	-0.183413	0	-0.416163	-0.214465	-6.92954	0.524084	22.7709	459.246	49.8495	-0.184398	0	-0.75084	0.219881	4.43458	0.481358
1.79	9.66962	277.392	-20.3876	-0.181588	0	-0.416549	-0.231592	-6.64368	0.488295	21.721	460.907	50.6096	-0.183342	0	-0.751503	0.197708	4.19525	0.460658
1.8	10.9631	266.279	-18.9073	-0.17994	0	-0.417101	-0.264753	-6.4305	0.456599	22.1048	464.048	51.2097	-0.182742	0	-0.751855	0.19112	4.01221	0.442764
1.81	12.336	257.176	-17.3852	-0.178231	0	-0.417805	-0.298082	-6.21432	0.420091	22.9814	468.064	52.1278	-0.181779	0	-0.752293	0.184948	3.76684	0.419509
1.82	13.5976	250.576	-15.8732	-0.176231	0	-0.4188	-0.327729	-6.03938	0.382575	23.1136	473.656	53.4501	-0.180148	0	-0.752934	0.1694	3.47143	0.391736
1.83	14.6306	246.871	-14.5439	-0.1742	0	-0.420043	-0.346315	-5.8436	0.344264	21.5795	481.207	54.7767	-0.177276	0	-0.753821	0.146209	3.26035	0.371132
1.84	15.039	243.946	-13.9644	-0.171966	0	-0.421197	-0.347924	-5.64363	0.323063	17.1784	486.638	55.8774	-0.173029	0	-0.754918	0.109461	3.10086	0.35605
1.85	14.2455	240.549	-14.1811	-0.169811	0	-0.422001	-0.322763	-5.45017	0.321303	11.1289	487.783	56.8412	-0.168141	0	-0.755934	0.0688056	3.01577	0.351427
1.86	13.2017	239.447	-15.4655	-0.168325	0	-0.422529	-0.292481	-5.30489	0.342633	6.26353	487.18	58.0949	-0.163703	0	-0.756938	0.0382201	2.97277	0.354495
1.87	12.0443	245.368	-17.7509	-0.167488	0	-0.422798	-0.25988	-5.29428	0.38301	4.12537	489.419	60.1217	-0.160215	0	-0.757982	0.0249231	2.95678	0.36322
1.88	11.7225	260.503	-21.2205	-0.16737	0	-0.423088	-0.24545	-5.45451	0.444324	5.67282	495.303	63.3767	-0.157336	0	-0.758963	0.0333291	2.91002	0.372352
